{"title":"The.Comic.Strip.Complete.Collection.D4.DVDRip.x264.Iou1","uid":8555523,"size":1565154620,"categoryP":"video","categoryS":"tv_shows","magnet":"?xt=urn:btih:c815b0654dd4d26c3061d418cd10413031977f11&amp;dn=The.Comic.Strip.Complete.Collection.D4.DVDRip.x264.Iou1&amp;tr=udp%3A%2F%2Ftracker.openbittorrent.com%3A80&amp;tr=udp%3A%2F%2Fopen.demonii.com%3A1337&amp;tr=udp%3A%2F%2Ftracker.coppersurfer.tk%3A6969&amp;tr=udp%3A%2F%2Fexodus.desync.com%3A6969","seeders":1,"leechers":0,"uploader":"jaybee211","files":-1,"time":1370751381,"description":"Disc 4 Of 9\n\n16.Private Enterprise                    : 720x556 33m 46s\n17.The Strike                            : 720x544 59m 05s\n18.More Bad News                         : 720x554 50m 56s \n19.Mr.Jolly Lives Next Door              : 720x556 49m 36s\n\nNote. Video/Audio Bitrate varies slightly in all 4 clips\n\nFormat                                   : MPEG-4\nFile size                                : 1.45 GiB\nDuration                                 : 3h 13mn 25s\nOverall bit rate mode                    : Variable\nOverall bit rate                         : 1 079 Kbps\n\nVideo\nFormat settings, CABAC                   : Yes\nFormat settings, ReFrames                : 1 frame\nCodec ID                                 : avc1\nDuration                                 : 3h 13mn 25s\nBit rate mode                            : Variable\nBit rate                                 : 1 002 Kbps\nFrame rate mode                          : Constant\nFrame rate                               : 25.000 fps\nBit depth                                : 8 bits\nScan type                                : Progressive\nBits/(Pixel*Frame)                       : 0.100\nStream size                              : 1.38 GiB (93%)\nWriting library                          : x264 core\n\nAudio\nFormat                                   : AAC\nDuration                                 : 3h 13mn 25s\nBit rate mode                            : Variable\nBit rate                                 : 73.6 Kbps\nMaximum bit rate                         : 87.0 Kbps\nChannel(s)                               : 2 channels\nChannel positions                        : Front: L R\nSampling rate                            : 48.0 KHz\nCompression mode                         : Lossy\nStream size                              : 102 MiB (7%)\nLanguage                                 : English\nSubtitles                                : None\n\nIMDB. &lt;a href=&quot; http://www.imdb.com/title/tt0083402/&quot; rel=&quot;nofollow&quot; target=&quot;_NEW&quot;&gt; http://www.imdb.com/title/tt0083402/&lt;/a&gt;\n\nScreens. &lt;a href=&quot; http://bayimg.com/ManfdaAEc&quot; rel=&quot;nofollow&quot; target=&quot;_NEW&quot;&gt; http://bayimg.com/ManfdaAEc&lt;/a&gt;\n\n         &lt;a href=&quot; http://bayimg.com/mANfFAAEC&quot; rel=&quot;nofollow&quot; target=&quot;_NEW&quot;&gt; http://bayimg.com/mANfFAAEC&lt;/a&gt;\n\n         &lt;a href=&quot; http://bayimg.com/manFHaAEC&quot; rel=&quot;nofollow&quot; target=&quot;_NEW&quot;&gt; http://bayimg.com/manFHaAEC&lt;/a&gt;\n\n         &lt;a href=&quot; http://bayimg.com/mANfiaaEC&quot; rel=&quot;nofollow&quot; target=&quot;_NEW&quot;&gt; http://bayimg.com/mANfiaaEC&lt;/a&gt;  \n\nEnjoy.","torrent":{"xt":"urn:btih:c815b0654dd4d26c3061d418cd10413031977f11","amp;dn":"The.Comic.Strip.Complete.Collection.D4.DVDRip.x264.Iou1","amp;tr":["udp%3A%2F%2Ftracker.openbittorrent.com%3A80","udp%3A%2F%2Fopen.demonii.com%3A1337","udp%3A%2F%2Ftracker.coppersurfer.tk%3A6969","udp%3A%2F%2Fexodus.desync.com%3A6969"],"infoHash":"c815b0654dd4d26c3061d418cd10413031977f11","infoHashBuffer":{"type":"Buffer","data":[200,21,176,101,77,212,210,108,48,97,212,24,205,16,65,48,49,151,127,17]},"announce":[],"urlList":[]}}